<svg width="24" height="24" viewBox="0 0 24 24" fill="none" xmlns="http://www.w3.org/2000/svg">
<g clip-path="url(#clip0_202_149)">
<path fill-rule="evenodd" clip-rule="evenodd" d="M20.571 20.4689H17.02V14.9099C17.02 13.5849 16.996 11.8799 15.174 11.8799C13.325 11.8799 13.044 13.3249 13.044 14.8159V20.4689H9.49496V9.03891H12.9V10.6019H12.95C13.423 9.70291 14.582 8.75491 16.31 8.75491C19.907 8.75491 20.571 11.1219 20.571 14.1999V20.4689ZM5.48996 7.47791C5.21943 7.47804 4.95153 7.42489 4.70155 7.32149C4.45157 7.21808 4.2244 7.06645 4.03302 6.87526C3.84164 6.68406 3.68979 6.45704 3.58615 6.20716C3.4825 5.95728 3.42909 5.68943 3.42896 5.41891C3.42882 5.14839 3.48198 4.88049 3.58538 4.63051C3.68878 4.38053 3.84041 4.15336 4.03161 3.96198C4.2228 3.7706 4.44982 3.61875 4.6997 3.5151C4.94958 3.41146 5.21743 3.35804 5.48796 3.35791C6.0343 3.35765 6.55838 3.57443 6.94489 3.96056C7.3314 4.3467 7.54869 4.87056 7.54896 5.41691C7.54922 5.96326 7.33244 6.48733 6.9463 6.87384C6.56017 7.26036 6.0363 7.47765 5.48996 7.47791ZM7.26596 20.4679H3.70996V9.03891H7.26596V20.4679Z" fill="#555555"/>
</g>
<defs>
<clipPath id="clip0_202_149">
<rect width="24" height="24" fill="white"/>
</clipPath>
</defs>
</svg>
