<svg width="24" height="24" viewBox="0 0 24 24" fill="none" xmlns="http://www.w3.org/2000/svg">
<g clip-path="url(#clip0_202_143)">
<path d="M16.763 3.34814H7.634C5.44861 3.34814 3.677 5.11975 3.677 7.30514V16.3351C3.677 18.5205 5.44861 20.2921 7.634 20.2921H16.763C18.9484 20.2921 20.72 18.5205 20.72 16.3351V7.30514C20.72 5.11975 18.9484 3.34814 16.763 3.34814Z" stroke="#555555" stroke-width="1.45"/>
<path d="M12.2239 15.9703C14.4745 15.9703 16.2989 14.1459 16.2989 11.8953C16.2989 9.64475 14.4745 7.82031 12.2239 7.82031C9.97337 7.82031 8.14893 9.64475 8.14893 11.8953C8.14893 14.1459 9.97337 15.9703 12.2239 15.9703Z" stroke="#555555" stroke-width="1.45"/>
<path d="M17.2169 8.0193C17.8758 8.0193 18.4099 7.48518 18.4099 6.8263C18.4099 6.16742 17.8758 5.6333 17.2169 5.6333C16.558 5.6333 16.0239 6.16742 16.0239 6.8263C16.0239 7.48518 16.558 8.0193 17.2169 8.0193Z" fill="#555555"/>
</g>
<defs>
<clipPath id="clip0_202_143">
<rect width="24" height="24" fill="white"/>
</clipPath>
</defs>
</svg>
