<svg width="24" height="24" viewBox="0 0 24 24" fill="none" xmlns="http://www.w3.org/2000/svg">
<g clip-path="url(#clip0_202_152)">
<path fill-rule="evenodd" clip-rule="evenodd" d="M19.001 5.19998C19.392 5.24698 20.245 5.24998 21.005 6.04298C21.605 6.64798 21.8 8.01998 21.8 8.01998C21.8 8.01998 22 9.62998 22 11.241V12.751L21.996 13.154C21.968 14.62 21.8 15.974 21.8 15.974C21.8 15.974 21.605 17.345 21.005 17.95C20.245 18.742 19.392 18.746 19.001 18.792C16.571 18.967 13.081 18.995 12.206 18.999H11.902C11.18 18.992 6.67 18.94 5.2 18.801C4.755 18.718 3.755 18.742 2.995 17.95C2.395 17.345 2.2 15.974 2.2 15.974C2.2 15.974 2 14.363 2 12.752V11.242C2 9.62998 2.2 8.01998 2.2 8.01998C2.2 8.01998 2.395 6.64798 2.995 6.04298C3.755 5.25098 4.607 5.24698 4.999 5.20098C7.282 5.03598 10.497 5.00598 11.604 5.00098H12.396C13.503 5.00598 16.718 5.03598 19.001 5.20098V5.19998ZM9.934 8.98898L9.935 14.583L15.339 11.796L9.934 8.98898Z" fill="#555555"/>
</g>
<defs>
<clipPath id="clip0_202_152">
<rect width="24" height="24" fill="white"/>
</clipPath>
</defs>
</svg>
